<?xml version="1.0" encoding="UTF-8" standalone="no"?>
<!-- Created with Inkscape (http://www.inkscape.org/) -->

<svg
   width="128"
   height="128"
   viewBox="0 0 33.866667 33.866668"
   version="1.1"
   id="svg5"
   xmlns="http://www.w3.org/2000/svg"
   xmlns:svg="http://www.w3.org/2000/svg">
  <defs
     id="defs2" />
  <g
     id="layer1">
    <path
       id="path145"
       style="fill:#5eb5f7;fill-opacity:1;stroke-width:0.140387"
       d="M 16.98822,0.2554333 A 16.75738,16.75738 0 0 0 0.23085105,17.012802 16.75738,16.75738 0 0 0 16.98822,33.770169 16.75738,16.75738 0 0 0 33.745589,17.012802 16.75738,16.75738 0 0 0 16.98822,0.2554333 Z m 0.128049,1.6451643 c 0.579206,0 1.110513,1.2836069 1.30626,3.1556993 0.223449,2.137083 -0.172935,4.7765332 -0.873855,5.8200421 -0.305035,0.45413 -0.765017,0.573597 -1.062502,0.276114 -0.105604,-0.105604 -0.269503,-0.342117 -0.364404,-0.52563 -0.789795,-1.5273008 -0.776438,-5.710958 0.02441,-7.6593364 0.213673,-0.5198517 0.711019,-1.066889 0.970099,-1.066889 z m 9.523855,2.2176813 c 0.716228,-0.027681 1.030484,0.3368983 0.618033,1.1889052 -0.482384,0.996476 -2.247035,2.6523671 -3.914118,3.6728289 -1.465545,0.8970951 -3.296472,1.344046 -3.668716,0.8955179 -0.395813,-0.4769241 0.192401,-1.5446416 1.538501,-2.7929404 1.922508,-1.7828241 4.232589,-2.9181741 5.4263,-2.9643116 z m -19.3729047,0.00414 c 1.3495953,-0.00164 4.2821437,1.5796762 6.0481717,3.4871993 1.534696,1.6576577 1.48231,2.7480008 -0.11708,2.4356658 C 10.57736,9.5334522 6.2196123,5.9051903 6.5663792,4.5235641 6.6357248,4.2472695 6.8893329,4.1228809 7.2672193,4.1224178 Z M 21.009825,11.259689 c 0.972749,-0.01046 1.960533,0.364998 2.670376,1.07484 1.77081,1.77081 1.228507,4.790555 -1.052633,5.862818 -0.67139,0.315591 -1.901439,0.41139 -2.543698,0.197966 -0.256151,-0.08512 -0.629364,-0.239955 -0.829162,-0.344113 -0.546927,-0.285125 -1.396243,-1.294829 -1.605406,-1.908664 -0.237193,-0.696136 -0.237193,-1.822611 0,-2.518746 0.253292,-0.74337 1.076997,-1.626558 1.886181,-2.022457 0.459339,-0.224733 0.964806,-0.336184 1.474342,-0.341644 z m -7.989466,0.0063 c 0.932391,0.01977 1.848911,0.383482 2.506956,1.111858 1.30206,1.44123 1.34789,3.51507 0.108032,4.894089 -0.929199,1.033493 -2.472205,1.493546 -3.774007,1.125293 C 9.5088554,17.731794 8.4763839,14.86884 9.8619171,12.853062 10.596709,11.784025 11.82157,11.240616 13.020359,11.266026 Z m -4.8041537,4.543096 c 0.1973091,-0.0075 0.2824202,0.07416 0.2824202,0.247324 0,0.345995 0.7033519,1.518907 1.2004217,2.00189 0.6046158,0.587489 1.4010908,1.014801 2.2440028,1.203437 l 0.644357,0.144226 -0.07733,0.47463 C 12.301627,21.15784 11.299259,22.4035 10.17038,22.788146 9.5790971,22.989617 8.3203314,23.020736 7.7259397,22.848476 6.7424512,22.563483 5.637001,21.435782 5.3588288,20.434245 4.8553072,18.621346 5.8336819,16.626037 7.5392196,15.987914 7.8413347,15.874878 8.0627425,15.814978 8.2162053,15.80914 Z m 17.5698037,0.03811 c 0.02429,4.14e-4 0.05061,0.0032 0.07952,0.0074 1.079451,0.158183 2.359641,1.268158 2.722471,2.360537 0.279513,0.841535 0.189297,2.061415 -0.210305,2.846133 -0.350282,0.687865 -1.078888,1.385943 -1.759504,1.685747 -0.590664,0.26018 -1.727873,0.370087 -2.315569,0.223741 -1.468655,-0.365721 -2.590163,-1.592961 -2.828584,-3.095102 l -0.07622,-0.479839 0.51521,-0.07733 c 1.53349,-0.229959 2.988982,-1.471267 3.504747,-2.989264 0.129717,-0.381778 0.19823,-0.484926 0.368243,-0.482033 z m -8.787643,1.1316 0.197694,0.291193 c 0.666384,0.981056 1.998461,1.88087 3.027925,2.045488 l 0.461742,0.07376 -0.09185,0.580743 c -0.312675,1.977933 -2.175827,3.31541 -4.177896,2.999095 -0.780752,-0.123353 -1.322855,-0.38648 -1.908115,-0.925953 -0.607503,-0.559976 -0.975014,-1.249151 -1.105275,-2.073181 l -0.09158,-0.580743 0.461743,-0.07376 c 1.029459,-0.164619 2.361539,-1.064433 3.027923,-2.045489 z m -4.090153,4.465523 0.173017,0.328758 c 0.463516,0.881163 1.953843,1.914633 3.014763,2.09073 0.37535,0.06231 0.436532,0.115375 0.435968,0.37784 -0.0016,0.885404 -0.633707,2.008723 -1.472148,2.617181 -0.822664,0.597005 -1.841638,0.832964 -2.844488,0.658615 -1.495872,-0.260062 -2.7340714,-1.540227 -2.9623936,-3.062747 -0.076168,-0.507937 -0.063764,-0.548114 0.1669853,-0.548114 0.9014003,0 2.5118973,-0.988513 3.1293773,-1.92073 z m 8.189079,0.0093 0.320807,0.505613 c 0.575359,0.907248 1.829157,1.729038 2.899327,1.900166 l 0.479841,0.07678 -0.07102,0.480114 c -0.232511,1.568237 -1.435823,2.805931 -3.004618,3.090715 -0.379981,0.06897 -0.720507,0.119712 -0.756777,0.112694 -0.03626,-0.007 -0.294973,-0.05772 -0.57471,-0.112694 -1.58112,-0.310736 -2.926198,-1.781959 -2.926198,-3.200667 0,-0.340269 0.03938,-0.380904 0.436792,-0.452968 1.079084,-0.195662 2.380079,-1.078424 2.95115,-2.002439 z m -4.098926,4.665136 c 0.03451,0 0.06888,0.05799 0.137646,0.173566 0.57113,0.959895 2.070462,1.982349 3.111552,2.121987 0.370553,0.0497 0.470423,0.108329 0.431307,0.252807 -0.028,0.103417 -0.08591,0.395021 -0.128869,0.648195 -0.168655,0.993986 -1.041079,2.05621 -2.056456,2.50394 -0.637693,0.281188 -1.722485,0.389579 -2.341344,0.234162 -0.688503,-0.17291 -1.267339,-0.516844 -1.790212,-1.063874 -0.563807,-0.589846 -0.806548,-1.033981 -0.914985,-1.672856 -0.04309,-0.253942 -0.10142,-0.546143 -0.12942,-0.649567 -0.0391,-0.144478 0.06076,-0.203106 0.431307,-0.252807 1.041087,-0.139638 2.540424,-1.162092 3.111555,-2.121987 0.06876,-0.115572 0.103407,-0.173566 0.137919,-0.173566 z" />
  </g>
</svg>
